<svg width="48" height="48" viewBox="0 0 48 48" fill="none" xmlns="http://www.w3.org/2000/svg">
<circle cx="24" cy="24" r="24" fill="#454541"/>
<path d="M29.039 20.0503L28.9468 19.5859C28.8635 19.1689 28.6748 18.7751 28.2442 18.6244C28.1062 18.5761 27.949 18.5554 27.8438 18.4557C27.7386 18.3559 27.7067 18.201 27.6822 18.0572C27.6368 17.7935 27.5942 17.5297 27.5478 17.2664C27.5076 17.0399 27.4759 16.7858 27.3715 16.578C27.2355 16.2993 26.9534 16.1362 26.6727 16.028C26.529 15.9746 26.3823 15.9295 26.2334 15.8928C25.5323 15.7095 24.7954 15.6414 24.0747 15.6029C23.2088 15.5556 22.3406 15.5702 21.4767 15.6466C20.8341 15.7045 20.1571 15.7749 19.5464 15.995C19.3232 16.0758 19.0931 16.1728 18.9234 16.3443C18.7152 16.5548 18.6466 16.8804 18.7992 17.143C18.9073 17.3295 19.0905 17.4613 19.2846 17.5484C19.5376 17.6608 19.8018 17.7463 20.0728 17.8034C20.8274 17.9685 21.6092 18.0343 22.3801 18.062C23.2345 18.0962 24.0904 18.0684 24.9408 17.9787C25.1511 17.9559 25.3611 17.9284 25.5707 17.8962C25.8174 17.8585 25.9766 17.5379 25.9028 17.3144C25.8157 17.0473 25.5819 16.9437 25.3174 16.9844C25.2784 16.9904 25.2397 16.9961 25.2008 17.0027L25.1725 17.0067C25.083 17.018 24.9934 17.0285 24.9039 17.0383C24.7187 17.0581 24.5331 17.0743 24.3472 17.0869C23.9306 17.1157 23.5131 17.129 23.0956 17.1296C22.6854 17.1296 22.2751 17.1182 21.8657 17.0915C21.6789 17.0792 21.4927 17.0638 21.307 17.0451C21.2222 17.0363 21.1378 17.0268 21.0538 17.0166L20.9743 17.0066L20.9559 17.004L20.8727 16.9921C20.7027 16.9666 20.5328 16.9371 20.3647 16.902C20.3477 16.8982 20.3325 16.8889 20.3215 16.8755C20.3134 16.8654 20.308 16.8534 20.3059 16.8407C20.3037 16.828 20.3048 16.8149 20.3091 16.8028C20.3135 16.7906 20.3208 16.7797 20.3306 16.7712C20.3403 16.7626 20.352 16.7567 20.3647 16.7539H20.3697C20.5155 16.7229 20.6621 16.6967 20.8096 16.6736C20.8586 16.6659 20.9079 16.6585 20.9572 16.651H20.9584C21.0507 16.645 21.143 16.6287 21.2352 16.6178C22.0337 16.5352 22.8369 16.507 23.6393 16.5335C24.029 16.5449 24.4183 16.5676 24.8059 16.6068C24.8893 16.6155 24.972 16.6252 25.0554 16.6347C25.0871 16.6384 25.119 16.643 25.1509 16.6468L25.2153 16.656C25.403 16.6838 25.5897 16.7176 25.7753 16.7572C26.0497 16.8161 26.403 16.8355 26.5253 17.1349C26.5643 17.2301 26.582 17.3366 26.6036 17.4354L26.6309 17.5627C26.6316 17.565 26.6322 17.5673 26.6325 17.5697C26.6972 17.8698 26.7621 18.17 26.8272 18.4705C26.8319 18.4927 26.8319 18.5156 26.8272 18.5378C26.8203 18.5713 26.8031 18.6019 26.7781 18.6252C26.753 18.6486 26.7212 18.6637 26.6871 18.6684H26.6855L26.6458 18.6739L26.6065 18.679C26.4823 18.6951 26.3579 18.7102 26.2334 18.7241C25.9884 18.7518 25.7428 18.7759 25.4967 18.7962C25.0081 18.8365 24.5185 18.863 24.0277 18.8756C23.7775 18.8822 23.5275 18.8853 23.2777 18.8849C22.283 18.8841 21.2893 18.8266 20.3012 18.7127C20.1942 18.7003 20.0874 18.6867 19.9804 18.6729C20.0634 18.6836 19.9201 18.6649 19.8911 18.6608C19.8232 18.6513 19.7552 18.6415 19.6872 18.6313C19.459 18.5972 19.232 18.5554 19.0045 18.5187C18.7293 18.4736 18.4658 18.4962 18.2167 18.6313C18.0123 18.7425 17.8469 18.9129 17.7425 19.12C17.6351 19.34 17.603 19.5809 17.5551 19.8182C17.5071 20.0555 17.4324 20.3105 17.4608 20.5539C17.5217 21.0794 17.8912 21.5073 18.423 21.6019C18.9232 21.692 19.426 21.7649 19.9302 21.8271C21.9109 22.0682 23.912 22.097 25.8989 21.9131C26.0607 21.8981 26.2222 21.8817 26.3836 21.864C26.434 21.8585 26.485 21.8643 26.5329 21.8809C26.5808 21.8975 26.6243 21.9246 26.6602 21.9601C26.6962 21.9956 26.7238 22.0387 26.7408 22.0861C26.7579 22.1336 26.7641 22.1842 26.7589 22.2344L26.7087 22.7203C26.6072 23.7029 26.5058 24.685 26.4045 25.6663C26.2988 26.6975 26.1924 27.7286 26.0853 28.7596L25.9945 29.6306C25.9655 29.9164 25.9615 30.2111 25.9069 30.4936C25.8207 30.9377 25.5183 31.2104 25.0766 31.3101C24.6722 31.4016 24.259 31.4497 23.8443 31.4535C23.3843 31.4559 22.9249 31.4352 22.4651 31.4381C21.9741 31.4409 21.3728 31.3958 20.9941 31.0327C20.6619 30.7139 20.6151 30.2146 20.5697 29.7827C20.5094 29.2113 20.4496 28.6397 20.3902 28.0681L20.0571 24.8911L19.8416 22.8347C19.838 22.8008 19.8344 22.7672 19.8309 22.7329C19.8051 22.4876 19.6304 22.2476 19.3551 22.26C19.1193 22.2703 18.8516 22.4694 18.8791 22.7329L19.0389 24.2572L19.3693 27.411C19.4634 28.3065 19.5573 29.2022 19.651 30.0981C19.6695 30.2698 19.6861 30.4417 19.7053 30.6134C19.8088 31.5513 20.5295 32.0566 21.4212 32.1989C21.9424 32.2823 22.4762 32.2994 23.0052 32.3089C23.6832 32.3197 24.3681 32.3456 25.0347 32.2235C26.0229 32.0434 26.7644 31.3875 26.8703 30.3702C26.9005 30.0769 26.9307 29.7831 26.9609 29.489C27.0613 28.5172 27.1616 27.5454 27.2619 26.5736L27.5895 23.398L27.7397 21.9426C27.7472 21.8705 27.7779 21.8026 27.8272 21.7491C27.8765 21.6956 27.9419 21.6593 28.0135 21.6456C28.2962 21.5906 28.567 21.4974 28.7672 21.2836C29.0885 20.9417 29.1521 20.4981 29.039 20.0503ZM18.4084 20.3648C18.4128 20.3628 18.4049 20.3995 18.4014 20.4165C18.4008 20.3907 18.4021 20.3677 18.4084 20.3648ZM18.4359 20.5755C18.4381 20.574 18.4449 20.583 18.452 20.5938C18.4413 20.5839 18.4346 20.5764 18.4357 20.5755H18.4359ZM18.4628 20.6109C18.4726 20.6274 18.4778 20.6376 18.4628 20.6109V20.6109ZM18.5171 20.6554H18.5184C18.5184 20.6571 18.521 20.6587 18.5217 20.6602C18.5202 20.6585 18.5185 20.6569 18.5167 20.6554H18.5171ZM28.0015 20.5902C27.9001 20.6861 27.7471 20.7308 27.5956 20.753C25.9006 21.0031 24.1808 21.1296 22.4664 21.0737C21.24 21.0321 20.0265 20.8967 18.8132 20.7262C18.6942 20.7095 18.5652 20.6879 18.4835 20.6008C18.3293 20.4358 18.4051 20.1057 18.4451 19.9068C18.482 19.7247 18.5521 19.4821 18.7699 19.4563C19.1099 19.4167 19.5046 19.5591 19.8409 19.6099C20.2457 19.671 20.6521 19.7199 21.0601 19.7566C22.8011 19.9143 24.571 19.8897 26.3043 19.6591C26.6202 19.6169 26.9349 19.568 27.2486 19.5124C27.5281 19.4627 27.8379 19.3692 28.0067 19.6569C28.1226 19.8527 28.1379 20.1153 28.12 20.3362C28.1145 20.4326 28.0721 20.5233 28.0015 20.5898V20.5902Z" fill="white"/>
</svg>
