<svg width="48" height="48" viewBox="0 0 48 48" fill="none" xmlns="http://www.w3.org/2000/svg">
<circle cx="24" cy="24" r="24" fill="#454541"/>
<path d="M24 17.442C26.136 17.442 26.3893 17.45 27.2333 17.4887C29.4013 17.5873 30.414 18.616 30.5127 20.768C30.5513 21.6113 30.5587 21.8647 30.5587 24.0007C30.5587 26.1373 30.5507 26.39 30.5127 27.2333C30.4133 29.3833 29.4033 30.414 27.2333 30.5127C26.3893 30.5513 26.1373 30.5593 24 30.5593C21.864 30.5593 21.6107 30.5513 20.7673 30.5127C18.594 30.4133 17.5867 29.38 17.488 27.2327C17.4493 26.3893 17.4413 26.1367 17.4413 24C17.4413 21.864 17.45 21.6113 17.488 20.7673C17.5873 18.616 18.5973 17.5867 20.7673 17.488C21.6113 17.45 21.864 17.442 24 17.442ZM24 16C21.8273 16 21.5553 16.0093 20.702 16.048C17.7967 16.1813 16.182 17.7933 16.0487 20.7013C16.0093 21.5553 16 21.8273 16 24C16 26.1727 16.0093 26.4453 16.048 27.2987C16.1813 30.204 17.7933 31.8187 20.7013 31.952C21.5553 31.9907 21.8273 32 24 32C26.1727 32 26.4453 31.9907 27.2987 31.952C30.2013 31.8187 31.82 30.2067 31.9513 27.2987C31.9907 26.4453 32 26.1727 32 24C32 21.8273 31.9907 21.5553 31.952 20.702C31.8213 17.7993 30.2073 16.182 27.2993 16.0487C26.4453 16.0093 26.1727 16 24 16ZM24 19.892C21.7313 19.892 19.892 21.7313 19.892 24C19.892 26.2687 21.7313 28.1087 24 28.1087C26.2687 28.1087 28.108 26.2693 28.108 24C28.108 21.7313 26.2687 19.892 24 19.892ZM24 26.6667C22.5273 26.6667 21.3333 25.4733 21.3333 24C21.3333 22.5273 22.5273 21.3333 24 21.3333C25.4727 21.3333 26.6667 22.5273 26.6667 24C26.6667 25.4733 25.4727 26.6667 24 26.6667ZM28.2707 18.77C27.74 18.77 27.31 19.2 27.31 19.73C27.31 20.26 27.74 20.69 28.2707 20.69C28.8007 20.69 29.23 20.26 29.23 19.73C29.23 19.2 28.8007 18.77 28.2707 18.77Z" fill="white"/>
</svg>
